<svg width="28.399994" height="28.449219" viewBox="0 0 28.4 28.4492" fill="none" xmlns="http://www.w3.org/2000/svg" xmlns:xlink="http://www.w3.org/1999/xlink">
	<desc>
			Created with Pixso.
	</desc>
	<defs/>
	<path id="Vector" d="M27.83 3.43C28.2 3.06 28.4 2.55 28.39 2.03C28.39 1.5 28.18 1 27.81 0.63C27.44 0.26 26.94 0.05 26.41 0.04C25.89 0.04 25.38 0.24 25.01 0.61L14.22 11.39L3.43 0.61C3.25 0.41 3.03 0.26 2.78 0.16C2.54 0.05 2.28 0 2.01 0C1.75 -0.01 1.48 0.04 1.24 0.14C0.99 0.24 0.77 0.39 0.58 0.58C0.39 0.77 0.24 0.99 0.14 1.24C0.04 1.48 -0.01 1.75 6.1e-5 2.01C0 2.28 0.05 2.54 0.16 2.78C0.26 3.03 0.41 3.25 0.61 3.43L11.39 14.22L0.61 25.01C0.41 25.19 0.26 25.41 0.16 25.65C0.05 25.9 0 26.16 6.1e-5 26.43C-0.01 26.69 0.04 26.96 0.14 27.2C0.24 27.45 0.39 27.67 0.58 27.86C0.77 28.05 0.99 28.19 1.24 28.3C1.48 28.4 1.75 28.45 2.01 28.44C2.28 28.44 2.54 28.39 2.78 28.28C3.03 28.18 3.25 28.02 3.43 27.83L14.22 17.05L25.01 27.83C25.38 28.2 25.89 28.4 26.41 28.39C26.94 28.39 27.44 28.18 27.81 27.81C28.18 27.44 28.39 26.94 28.39 26.41C28.4 25.89 28.2 25.38 27.83 25.01L17.05 14.22L27.83 3.43Z" fill="#514F4D" fill-opacity="1.000000" fill-rule="nonzero"/>
</svg>
