<svg width="26.995575" height="25.500000" viewBox="0 0 26.9956 25.5" fill="none" xmlns="http://www.w3.org/2000/svg" xmlns:xlink="http://www.w3.org/1999/xlink">
	<path id="Vector" d="M10.99 25.5C10.73 25.5 10.47 25.39 10.29 25.2C10.1 25.01 9.99 24.76 9.99 24.5L9.99 14.88L0.72 4.68C0.36 4.28 0.12 3.78 0.03 3.25C-0.06 2.71 0.02 2.16 0.23 1.66C0.45 1.17 0.81 0.75 1.27 0.45C1.72 0.15 2.25 0 2.8 0L24.19 0C24.73 0 25.26 0.15 25.72 0.45C26.17 0.75 26.53 1.17 26.75 1.66C26.97 2.16 27.04 2.71 26.95 3.25C26.87 3.78 26.63 4.28 26.26 4.68L16.99 14.88L16.99 20.5C16.99 20.64 16.96 20.79 16.89 20.93C16.83 21.06 16.73 21.18 16.62 21.27L11.62 25.27C11.44 25.42 11.22 25.5 10.99 25.5ZM2.8 2C2.64 2 2.49 2.04 2.36 2.13C2.23 2.21 2.13 2.33 2.06 2.47C2 2.62 1.98 2.77 2.01 2.93C2.03 3.08 2.1 3.22 2.2 3.34L11.73 13.84C11.9 14.02 11.99 14.25 11.99 14.5L11.99 22.41L14.99 20L14.99 14.5C14.99 14.25 15.08 14 15.25 13.82L24.78 3.32C24.88 3.2 24.94 3.06 24.97 2.91C24.99 2.76 24.97 2.61 24.9 2.47C24.84 2.33 24.74 2.21 24.61 2.13C24.49 2.05 24.34 2 24.19 2L2.8 2Z" fill="#514F4D" fill-opacity="1.000000" fill-rule="nonzero"/>
</svg>
