<svg width="859.500000" height="69.000000" viewBox="0 0 859.5 69" fill="none" xmlns="http://www.w3.org/2000/svg" xmlns:xlink="http://www.w3.org/1999/xlink">
	<desc>
			Created with Pixso.
	</desc>
	<defs>
		<clipPath id="clip4001_1214">
			<rect id="Frame" rx="0.000000" width="63.500000" height="63.500000" transform="translate(1.000000 2.750000)" fill="white" fill-opacity="0"/>
		</clipPath>
	</defs>
	<path id="Vector 1" d="M0.75 34.5L858.75 34.5" stroke="#514F4D" stroke-opacity="1.000000" stroke-width="1.500000" stroke-linejoin="round" stroke-linecap="round" stroke-dasharray="2 8"/>
	<rect id="Frame" rx="0.000000" width="63.500000" height="63.500000" transform="translate(1.000000 2.750000)" fill="#FFFFFF" fill-opacity="0"/>
	<g clip-path="url(#clip4001_1214)">
		<path id="Vector" d="M41.73 45.06C41.65 45.33 41.47 45.56 41.24 45.7C41 45.85 40.72 45.9 40.44 45.85C40.18 45.77 39.95 45.59 39.81 45.35C39.66 45.11 39.61 44.82 39.66 44.55L40.95 39.29L40.95 28.33C40.97 28.15 40.93 27.97 40.84 27.82C40.74 27.67 40.61 27.55 40.44 27.48C40.31 27.43 40.16 27.4 40.01 27.4C39.87 27.4 39.73 27.43 39.6 27.48C39.44 27.55 39.31 27.66 39.21 27.8C39.12 27.94 39.07 28.11 39.08 28.28L39.08 29.5C39.08 29.79 38.96 30.07 38.76 30.27C38.56 30.47 38.29 30.58 38.01 30.58C37.73 30.58 37.45 30.47 37.25 30.27C37.05 30.07 36.94 29.79 36.94 29.5L36.94 26.71C36.96 26.53 36.91 26.35 36.82 26.2C36.72 26.05 36.59 25.93 36.42 25.86C36.29 25.81 36.14 25.78 35.99 25.78C35.85 25.78 35.71 25.81 35.58 25.86C35.42 25.93 35.29 26.04 35.2 26.18C35.1 26.32 35.06 26.49 35.07 26.66L35.07 29.53C35.05 29.81 34.93 30.07 34.73 30.27C34.54 30.47 34.27 30.59 33.99 30.6C33.85 30.6 33.71 30.58 33.59 30.52C33.46 30.47 33.34 30.39 33.24 30.29C33.14 30.19 33.06 30.07 33.01 29.94C32.96 29.81 32.93 29.67 32.93 29.53L32.93 26.3C32.94 26.11 32.9 25.93 32.8 25.78C32.71 25.62 32.57 25.5 32.4 25.43C32.13 25.32 31.83 25.32 31.56 25.43C31.4 25.49 31.27 25.6 31.17 25.75C31.08 25.89 31.03 26.06 31.03 26.24L31.03 29.53C31.05 29.68 31.03 29.83 30.99 29.97C30.94 30.11 30.87 30.25 30.77 30.36C30.67 30.47 30.54 30.56 30.41 30.62C30.27 30.68 30.13 30.71 29.98 30.71C29.83 30.71 29.68 30.68 29.55 30.62C29.41 30.56 29.29 30.47 29.19 30.36C29.09 30.25 29.01 30.11 28.97 29.97C28.92 29.83 28.91 29.68 28.92 29.53L28.92 26.57C28.92 26.4 28.88 26.23 28.78 26.08C28.69 25.94 28.55 25.82 28.39 25.76C28.26 25.71 28.11 25.68 27.97 25.68C27.83 25.68 27.68 25.71 27.54 25.76C27.38 25.83 27.24 25.94 27.15 26.1C27.05 26.25 27.01 26.43 27.02 26.6L27.02 36.35C27.02 36.63 26.91 36.9 26.71 37.1C26.51 37.31 26.24 37.42 25.96 37.42C25.68 37.42 25.41 37.31 25.21 37.1C25.01 36.9 24.9 36.63 24.9 36.35L24.9 31.62C24.9 31.44 24.86 31.28 24.76 31.13C24.67 30.99 24.54 30.87 24.38 30.81C24.24 30.75 24.1 30.72 23.95 30.73C23.81 30.73 23.66 30.75 23.53 30.81C23.37 30.87 23.23 30.99 23.14 31.14C23.04 31.3 23 31.47 23.01 31.65L23.01 37.05C23.01 39.17 23.09 39.27 24.14 40.67L24.45 41.08L26.76 44.15C26.91 44.37 26.97 44.64 26.92 44.91C26.88 45.18 26.74 45.42 26.53 45.58C26.32 45.75 26.05 45.83 25.79 45.81C25.52 45.78 25.27 45.66 25.09 45.46L22.76 42.4L22.46 42C20.96 40.02 20.84 39.89 20.84 37.05L20.84 31.65C20.82 31.02 20.99 30.4 21.34 29.88C21.68 29.36 22.19 28.97 22.77 28.76C23.16 28.61 23.58 28.53 24 28.52C24.32 28.52 24.64 28.57 24.94 28.67L24.94 26.6C24.92 25.99 25.08 25.39 25.42 24.88C25.75 24.37 26.23 23.99 26.8 23.77C27.18 23.6 27.59 23.52 28.01 23.52C28.43 23.52 28.84 23.6 29.23 23.77C29.43 23.85 29.62 23.95 29.8 24.08C30.09 23.81 30.42 23.59 30.78 23.44C31.17 23.29 31.59 23.21 32 23.21C32.42 23.21 32.83 23.29 33.21 23.44C33.61 23.59 33.97 23.83 34.26 24.14C34.43 24.03 34.61 23.94 34.8 23.87C35.18 23.71 35.59 23.62 36.01 23.62C36.43 23.62 36.84 23.71 37.22 23.87C37.59 24.01 37.92 24.23 38.2 24.51C38.48 24.78 38.7 25.12 38.85 25.48C39.21 25.34 39.59 25.26 39.98 25.26C40.4 25.25 40.81 25.34 41.2 25.5C41.77 25.71 42.25 26.11 42.58 26.62C42.91 27.13 43.08 27.73 43.05 28.34L43.05 39.42C43.07 39.5 43.07 39.59 43.05 39.68L41.73 45.06Z" fill="#8B8785" fill-opacity="1.000000" fill-rule="nonzero"/>
		<path id="Vector" d="M13.91 33.48C14.05 33.46 14.2 33.48 14.35 33.53C14.49 33.57 14.62 33.65 14.73 33.75C14.84 33.85 14.93 33.97 14.99 34.11C15.05 34.25 15.08 34.4 15.08 34.55C15.08 34.7 15.05 34.85 14.99 34.98C14.93 35.12 14.84 35.24 14.73 35.34C14.62 35.44 14.49 35.52 14.35 35.57C14.2 35.61 14.05 35.63 13.91 35.61L4.37 35.61L6.07 37.33C6.17 37.43 6.24 37.55 6.3 37.68C6.35 37.81 6.38 37.95 6.38 38.09C6.38 38.23 6.35 38.37 6.3 38.5C6.25 38.63 6.17 38.75 6.07 38.85C5.97 38.95 5.86 39.03 5.73 39.09C5.6 39.14 5.46 39.17 5.32 39.17C5.18 39.17 5.04 39.14 4.91 39.09C4.78 39.04 4.66 38.96 4.56 38.86L1.06 35.32C0.87 35.11 0.77 34.83 0.77 34.55C0.77 34.27 0.87 34 1.06 33.79L4.56 30.25C4.66 30.15 4.78 30.07 4.91 30.01C5.04 29.96 5.18 29.93 5.31 29.93C5.45 29.93 5.59 29.96 5.72 30.01C5.85 30.07 5.97 30.15 6.07 30.25C6.25 30.46 6.36 30.73 6.36 31.01C6.36 31.29 6.25 31.57 6.07 31.78L4.37 33.49L13.91 33.48Z" fill="#8B8785" fill-opacity="1.000000" fill-rule="nonzero"/>
		<path id="Vector" d="M51.58 35.61C51.44 35.63 51.29 35.61 51.14 35.57C51 35.52 50.87 35.44 50.76 35.34C50.65 35.24 50.56 35.12 50.5 34.98C50.44 34.85 50.41 34.7 50.41 34.55C50.41 34.4 50.44 34.25 50.5 34.11C50.56 33.97 50.65 33.85 50.76 33.75C50.87 33.65 51 33.57 51.14 33.53C51.29 33.48 51.44 33.46 51.58 33.48L61.08 33.48L59.41 31.77C59.23 31.56 59.12 31.28 59.12 31C59.12 30.72 59.23 30.44 59.41 30.24C59.51 30.14 59.63 30.06 59.76 30C59.89 29.95 60.02 29.92 60.16 29.92C60.3 29.92 60.44 29.95 60.57 30C60.7 30.06 60.82 30.14 60.92 30.24L64.42 33.78C64.52 33.87 64.6 33.99 64.66 34.12C64.71 34.26 64.74 34.4 64.74 34.54C64.74 34.68 64.71 34.83 64.66 34.96C64.6 35.09 64.52 35.21 64.42 35.31L60.92 38.85C60.71 39.05 60.44 39.16 60.16 39.16C59.88 39.16 59.61 39.04 59.41 38.84C59.21 38.64 59.1 38.36 59.1 38.08C59.1 37.79 59.21 37.52 59.41 37.32L61.08 35.61L51.58 35.61Z" fill="#8B8785" fill-opacity="1.000000" fill-rule="nonzero"/>
		<path id="Vector" d="M32.62 64.07C26.34 64.17 20.2 62.2 15.13 58.45C10.06 54.7 6.34 49.38 4.53 43.3L2.02 43.3C3.91 50.01 7.93 55.91 13.45 60.1C18.98 64.28 25.71 66.51 32.62 66.45C39.52 66.51 46.25 64.28 51.78 60.1C57.3 55.91 61.32 50.01 63.21 43.3L60.7 43.3C58.89 49.38 55.17 54.7 50.1 58.45C45.03 62.2 38.89 64.17 32.62 64.07Z" fill="#8B8785" fill-opacity="1.000000" fill-rule="nonzero"/>
		<path id="Vector" d="M32.62 4.93C38.74 4.99 44.69 6.95 49.68 10.54C54.66 14.14 58.43 19.19 60.47 25.03L63.02 25.03C58.95 12.47 46.87 2.5 32.62 2.5C18.36 2.5 6.28 12.47 2.21 25.03L4.76 25.03C6.8 19.19 10.57 14.14 15.55 10.54C20.54 6.95 26.49 4.99 32.62 4.93Z" fill="#8B8785" fill-opacity="1.000000" fill-rule="nonzero"/>
	</g>
</svg>
