<svg width="26.727249" height="26.727051" viewBox="0 0 26.7272 26.7271" fill="none" xmlns="http://www.w3.org/2000/svg" xmlns:xlink="http://www.w3.org/1999/xlink">
	<path id="12" d="M26.33 24.43L22.55 20.67C24.6 18.15 25.6 14.93 25.34 11.69C25.09 8.45 23.6 5.43 21.18 3.25C18.76 1.08 15.61 -0.09 12.36 0C9.11 0.08 6.01 1.41 3.71 3.71C1.41 6.01 0.08 9.11 0 12.36C-0.09 15.61 1.08 18.76 3.25 21.18C5.43 23.6 8.45 25.09 11.69 25.34C14.93 25.6 18.15 24.6 20.67 22.55L24.43 26.33C24.56 26.45 24.71 26.55 24.87 26.62C25.03 26.69 25.21 26.72 25.38 26.72C25.56 26.72 25.73 26.69 25.89 26.62C26.06 26.55 26.2 26.45 26.33 26.33C26.45 26.2 26.55 26.06 26.62 25.89C26.69 25.73 26.72 25.56 26.72 25.38C26.72 25.21 26.69 25.03 26.62 24.87C26.55 24.71 26.45 24.56 26.33 24.43ZM2.71 12.71C2.71 10.74 3.3 8.8 4.4 7.16C5.5 5.51 7.06 4.23 8.89 3.48C10.72 2.72 12.73 2.52 14.67 2.91C16.61 3.29 18.39 4.25 19.79 5.64C21.18 7.04 22.14 8.82 22.52 10.76C22.91 12.7 22.71 14.71 21.95 16.54C21.2 18.37 19.91 19.93 18.27 21.03C16.63 22.13 14.69 22.71 12.71 22.71C10.06 22.71 7.52 21.66 5.64 19.79C3.77 17.91 2.71 15.37 2.71 12.71Z" fill="#FFFFFF" fill-opacity="1.000000" fill-rule="nonzero"/>
</svg>
